<?xml version="1.0" standalone="no"?>
<!DOCTYPE svg PUBLIC "-//W3C//DTD SVG 20010904//EN"
 "http://www.w3.org/TR/2001/REC-SVG-20010904/DTD/svg10.dtd">
<svg version="1.0" xmlns="http://www.w3.org/2000/svg"
 width="826.000000pt" height="825.000000pt" viewBox="0 0 826.000000 825.000000"
 preserveAspectRatio="xMidYMid meet">

<g transform="translate(0.000000,825.000000) scale(0.100000,-0.100000)"
fill="#000000" stroke="none">
<path d="M3871 7494 c0 -11 3 -14 6 -6 3 7 2 16 -1 19 -3 4 -6 -2 -5 -13z"/>
<path d="M2168 6043 c12 -10 53 -29 90 -42 37 -13 95 -39 128 -57 61 -34 174
-138 174 -161 0 -9 -19 -13 -62 -13 l-61 0 24 -26 c36 -39 80 -54 160 -54 72
0 72 0 54 20 -18 20 -18 21 1 35 22 16 102 20 148 6 17 -5 58 -17 91 -26 33
-10 65 -21 70 -25 6 -4 24 -10 40 -14 17 -4 38 -9 48 -12 57 -17 -80 100 -149
127 -16 6 -68 11 -116 10 -49 -1 -89 3 -93 9 -3 5 -22 10 -41 10 -37 0 -44 5
-127 98 -21 23 -52 49 -69 58 -39 20 -202 61 -277 69 -55 6 -56 6 -33 -12z"/>
<path d="M4607 5692 c-45 -36 -62 -55 -63 -69 -3 -34 -6 -36 -18 -13 -8 14
-12 29 -8 35 3 5 -3 3 -14 -6 -25 -22 -104 -36 -104 -19 0 9 -3 10 -14 1 -7
-6 -20 -9 -29 -5 -8 3 -18 1 -22 -5 -9 -16 -25 -13 -25 5 0 10 -9 5 -26 -15
-30 -36 -44 -38 -69 -11 -11 12 -25 18 -36 15 -11 -4 -23 2 -33 17 l-16 22 0
-31 c0 -18 -5 -35 -11 -39 -6 -3 -8 -16 -5 -27 11 -42 -43 -66 -64 -28 -5 11
-20 21 -32 23 -12 2 -23 9 -26 17 -3 10 2 13 22 9 14 -3 26 -1 26 5 0 6 -16 7
-41 3 -35 -6 -41 -4 -46 14 -3 11 -9 20 -13 20 -5 0 -15 3 -24 6 -11 4 -16 1
-16 -10 0 -24 -24 -19 -35 7 -8 17 -17 21 -40 19 -16 -2 -35 -8 -42 -14 -9 -7
-14 -6 -19 6 -6 17 -44 23 -44 7 0 -5 -8 -12 -17 -14 -16 -4 -16 -5 1 -6 10 0
25 -9 32 -18 8 -11 13 -13 14 -5 0 6 7 12 16 12 17 0 12 -29 -12 -67 -18 -29
-18 -39 1 -23 18 15 20 14 29 -22 4 -18 2 -28 -4 -28 -6 0 -8 5 -5 10 7 11 -6
13 -29 4 -20 -8 -21 -24 -1 -24 8 0 15 -7 15 -15 0 -18 -12 -19 -27 -4 -10 10
-63 2 -63 -10 0 -10 -42 -11 -55 -2 -5 5 -40 11 -77 14 -64 4 -68 4 -68 -17 0
-33 -15 -50 -39 -43 -12 3 -24 1 -27 -4 -3 -5 -16 -9 -29 -9 -18 0 -22 -4 -18
-20 4 -15 0 -20 -16 -20 -14 0 -19 -5 -15 -15 4 -9 0 -15 -9 -15 -21 0 -33 20
-17 30 10 6 9 9 0 15 -8 5 -18 1 -25 -8 -7 -10 -17 -17 -23 -17 -6 0 -9 -7 -6
-15 6 -15 -12 -45 -27 -45 -4 0 -11 10 -14 21 -6 17 -9 19 -16 8 -13 -20 -11
-29 6 -29 17 0 20 -25 5 -35 -5 -3 -10 -11 -10 -17 0 -7 4 -7 13 0 8 6 20 6
37 -1 25 -10 25 -10 3 -14 -36 -7 -27 -23 11 -23 19 0 37 -4 40 -9 3 -5 15 -7
26 -4 29 8 25 -15 -6 -29 -20 -10 -27 -9 -34 2 -7 12 -12 11 -29 -4 -12 -11
-22 -16 -22 -13 -1 4 -2 13 -3 19 -2 23 -30 19 -58 -7 -16 -14 -28 -32 -28
-40 0 -8 -7 -15 -15 -15 -8 0 -15 7 -15 16 0 13 -5 12 -27 -6 -20 -16 -28 -31
-29 -61 -1 -21 2 -37 6 -34 4 3 6 -4 3 -15 -3 -12 -14 -20 -27 -20 -12 0 -27
-5 -33 -11 -6 -6 -43 -15 -83 -19 -41 -5 -78 -14 -89 -24 -24 -22 -64 -20 -86
4 -14 15 -21 17 -32 8 -11 -9 -10 -14 7 -30 38 -36 15 -68 -49 -68 -20 0 -31
-5 -31 -14 0 -9 20 -16 65 -21 91 -9 95 -16 97 -191 2 -119 -8 -236 -27 -321
-3 -12 -18 -30 -34 -39 -19 -11 -42 -44 -67 -97 -47 -95 -126 -175 -195 -196
-78 -23 -199 -91 -243 -135 -51 -51 -69 -99 -91 -248 -17 -119 -21 -135 -43
-160 -17 -20 -36 -188 -22 -202 12 -12 27 22 35 79 12 94 88 445 96 445 13 0
21 -87 17 -188 -3 -95 -4 -99 -42 -147 l-38 -50 2 -175 c4 -252 8 -230 -44
-230 -41 0 -67 -11 -166 -67 -29 -17 -35 -26 -34 -52 1 -17 -3 -31 -8 -31 -22
0 201 -238 342 -366 129 -117 349 -277 466 -339 26 -14 52 -29 58 -34 17 -14
252 -131 262 -131 5 0 25 -8 44 -19 19 -10 69 -30 110 -45 41 -14 84 -31 95
-36 37 -17 299 -89 400 -109 479 -96 941 -89 1380 20 568 143 1074 415 1453
783 l83 81 -43 7 c-24 3 -89 7 -144 7 -89 1 -105 4 -130 24 -24 18 -40 22 -94
20 -94 -3 -211 15 -235 37 -18 16 -45 23 -125 35 -14 2 -35 -3 -47 -11 -28
-18 -33 -18 -33 0 0 7 -7 19 -15 26 -12 10 -15 10 -15 -4 0 -11 -9 -16 -30
-16 -16 0 -30 5 -30 11 0 6 -7 9 -15 5 -8 -3 -15 0 -15 6 0 7 -4 7 -13 -1 -11
-8 -20 -6 -37 9 -21 18 -42 29 -27 13 12 -12 -25 -43 -52 -43 -14 0 -34 -7
-44 -14 -12 -9 -37 -12 -82 -8 -36 2 -71 0 -78 -5 -6 -6 -45 -13 -85 -17 -69
-6 -73 -5 -81 16 -5 13 -6 29 -4 36 6 14 -13 16 -22 2 -9 -14 -21 -12 -40 6
-10 10 -26 14 -41 11 -19 -3 -28 1 -34 17 -8 20 -9 20 -10 1 0 -16 -2 -17 -9
-5 -6 8 -7 18 -5 22 8 12 -21 9 -33 -3 -13 -13 -34 3 -46 31 -4 12 -6 11 -6
-2 -1 -20 -16 -24 -26 -8 -3 5 1 71 10 146 20 159 16 184 -47 308 -50 100 -81
193 -103 311 -15 74 -16 112 -9 215 4 69 8 177 9 240 0 108 2 118 29 165 16
28 46 68 67 90 21 22 51 70 68 106 16 36 36 71 44 77 8 7 12 23 10 39 -3 20 2
34 19 49 27 25 155 94 174 94 7 0 22 -20 33 -45 22 -50 34 -54 71 -25 14 11
32 20 40 20 9 0 25 7 36 15 66 46 254 77 305 50 20 -11 25 -10 41 10 10 13 18
27 18 32 0 20 62 45 98 39 29 -4 32 -4 15 4 -27 11 -29 23 -8 40 13 11 20 11
40 0 14 -7 25 -17 25 -22 0 -4 7 -8 15 -8 8 0 15 7 15 15 0 8 7 15 16 15 9 0
14 -6 11 -12 -5 -16 10 -48 23 -48 6 0 10 9 10 21 0 11 5 19 12 17 12 -4 48
26 48 41 0 5 9 11 21 14 12 3 18 10 14 16 -3 6 -2 11 4 11 5 0 12 -6 14 -12 4
-9 6 -8 6 2 1 8 13 21 28 28 43 19 50 14 19 -14 -25 -24 -27 -28 -11 -37 11
-6 25 -6 39 1 11 5 37 10 55 11 37 2 54 11 34 18 -21 8 -15 30 10 37 35 9 40
7 34 -13 -6 -24 25 -34 49 -16 16 11 14 14 -15 36 -21 15 -31 30 -28 41 3 10
1 18 -3 18 -5 0 -10 10 -12 23 -2 14 -11 23 -25 25 -28 4 -30 22 -3 29 23 6
27 23 5 23 -8 0 -15 6 -15 13 -1 7 -6 5 -14 -5 -15 -20 -76 -20 -76 0 0 6 5
12 10 12 6 0 10 4 10 10 0 5 -21 15 -46 21 -31 8 -48 18 -52 31 -2 10 -10 18
-18 18 -7 0 -17 6 -21 14 -4 8 -17 15 -28 17 -11 3 -24 13 -30 24 -6 12 -18
19 -27 17 -19 -4 -25 13 -8 23 18 11 11 22 -12 20 -38 -4 -39 -5 -32 -17 10
-15 -202 -4 -222 13 -9 7 -29 9 -54 5 -41 -6 -50 0 -28 22 9 9 6 12 -16 12
-19 0 -29 6 -33 20 -3 11 -8 20 -12 20 -14 0 -51 41 -46 51 4 5 -2 12 -12 16
-24 9 -42 34 -36 50 3 9 -4 13 -22 13 -15 0 -24 -4 -20 -10 3 -5 0 -10 -8 -10
-8 0 -14 8 -13 17 1 12 -7 19 -24 21 -14 2 -44 19 -67 38 -23 19 -43 30 -45
24 -2 -5 -18 -11 -37 -12 -29 -2 -37 2 -48 22 -7 14 -13 19 -13 13 0 -7 -7
-13 -15 -13 -11 0 -15 8 -13 28 3 23 -1 27 -25 30 -20 2 -27 8 -23 17 7 18
-20 45 -45 45 -11 0 -19 7 -19 16 0 12 -6 15 -25 10 -14 -4 -25 -2 -25 2 0 18
-56 -2 -83 -30 -29 -29 -51 -35 -62 -19 -3 6 -19 4 -40 -5 -47 -19 -55 -18
-55 9 0 13 -6 29 -12 35 -10 10 -10 17 -1 31 20 32 -11 33 -50 3z m-677 -112
c0 -5 -2 -10 -4 -10 -3 0 -8 5 -11 10 -3 6 -1 10 4 10 6 0 11 -4 11 -10z m250
-20 c0 -23 -8 -25 -32 -6 -20 15 -14 26 14 26 11 0 18 -7 18 -20z m342 -2 c-7
-7 -12 -8 -12 -2 0 14 12 26 19 19 2 -3 -1 -11 -7 -17z m528 2 c0 -5 -10 -10
-22 -9 -22 0 -22 1 -3 9 11 5 21 9 23 9 1 1 2 -3 2 -9z m-890 -34 c0 -8 -7
-16 -15 -20 -10 -4 -15 1 -15 14 0 11 7 20 15 20 8 0 15 -6 15 -14z m716 -51
c16 -8 27 -15 24 -16 -3 0 -18 -2 -33 -3 -16 -1 -36 -11 -45 -23 -20 -25 -72
-29 -72 -6 0 8 -9 17 -20 20 -28 8 -25 20 8 26 32 6 39 2 24 -16 -7 -8 -9 -17
-6 -20 8 -8 34 18 34 32 0 7 10 9 25 5 15 -4 25 -2 25 5 0 14 2 14 36 -4z
m-168 -67 c-5 -14 -58 -21 -58 -8 0 8 21 16 48 19 8 0 12 -5 10 -11z m-95 -45
c6 -37 -5 -57 -28 -50 -15 5 -18 43 -5 66 16 31 27 26 33 -16z m-63 12 c0 -8
-4 -15 -10 -15 -5 0 -10 7 -10 15 0 8 5 15 10 15 6 0 10 -7 10 -15z m557 -5
c4 -15 11 -19 24 -15 13 4 19 1 19 -9 0 -15 -19 -20 -59 -18 -8 0 -20 -6 -28
-14 -17 -16 -33 -18 -33 -4 0 5 -7 7 -15 4 -26 -10 -17 23 13 44 51 36 72 39
79 12z m-1502 0 c-3 -5 -10 -10 -16 -10 -5 0 -9 5 -9 10 0 6 7 10 16 10 8 0
12 -4 9 -10z m1305 2 c0 -4 -18 -19 -40 -32 -35 -22 -56 -47 -47 -56 2 -2 27
12 56 32 55 36 81 41 38 8 -12 -11 -26 -27 -30 -36 -9 -24 -84 -46 -100 -29
-9 10 -8 15 6 26 12 9 14 15 7 20 -15 9 6 35 29 35 9 0 27 9 41 20 27 21 40
25 40 12z m310 -2 c0 -13 -48 -36 -56 -27 -4 3 -4 13 -1 22 7 17 57 21 57 5z
m-680 -40 c0 -11 -4 -20 -10 -20 -5 0 -10 9 -10 20 0 11 5 20 10 20 6 0 10 -9
10 -20z m216 -45 c-11 -8 -27 -15 -35 -15 -11 0 -10 4 5 15 10 8 26 14 34 14
11 0 10 -3 -4 -14z m482 -41 c13 -3 22 -10 19 -17 -5 -16 -27 -16 -54 -1 -12
8 -23 9 -25 5 -2 -5 -20 -12 -40 -16 -30 -6 -38 -4 -38 8 0 11 -6 13 -22 9
-15 -4 -19 -2 -13 7 4 7 16 11 26 8 10 -3 21 -1 24 4 5 8 67 4 123 -7z m-1998
-14 c0 -5 -2 -10 -4 -10 -3 0 -8 5 -11 10 -3 6 -1 10 4 10 6 0 11 -4 11 -10z
m1220 -10 c0 -5 -4 -10 -10 -10 -5 0 -10 5 -10 10 0 6 5 10 10 10 6 0 10 -4
10 -10z m-250 -10 c0 -5 11 -10 25 -10 14 0 25 5 25 11 0 5 5 7 11 3 7 -4 3
-14 -13 -28 -13 -11 -22 -29 -20 -38 4 -22 22 -24 22 -2 0 10 6 14 14 11 9 -4
16 3 20 19 7 27 23 30 51 10 17 -12 18 -16 5 -32 -14 -18 -14 -18 5 -4 11 8
24 21 28 28 11 17 28 15 21 -2 -3 -8 3 -19 15 -26 32 -17 25 -29 -19 -36 -32
-5 -38 -9 -29 -20 6 -7 26 -16 45 -20 19 -3 37 -10 40 -15 3 -5 13 -9 23 -9
10 0 29 -16 42 -35 16 -24 48 -48 96 -72 61 -31 72 -40 67 -58 -3 -11 0 -32 5
-45 10 -24 11 -23 10 10 -1 19 -1 38 0 43 2 15 79 -33 134 -83 72 -66 96 -114
87 -175 -5 -31 -17 -56 -37 -78 -19 -20 -33 -47 -36 -71 -10 -62 -54 -141
-124 -222 -36 -41 -69 -74 -73 -74 -4 0 -15 20 -24 44 -9 24 -33 58 -52 75
-31 28 -34 37 -29 64 4 18 14 43 22 55 19 31 11 38 -12 12 -15 -16 -44 -27
-45 -17 -1 1 -7 43 -15 92 -13 88 -13 91 8 122 12 18 32 38 44 44 13 7 23 17
23 22 0 12 -22 -4 -77 -57 -38 -35 -43 -45 -43 -84 0 -36 -2 -42 -14 -33 -7 6
-26 8 -43 5 -17 -3 -41 -1 -53 6 -18 10 -24 9 -31 -1 -10 -14 -17 -7 -92 85
-33 41 -105 76 -172 85 -42 5 -53 11 -72 40 -28 42 -26 67 5 64 12 -2 22 1 22
7 0 16 -20 22 -35 10 -10 -8 -15 -8 -20 1 -4 6 -3 14 3 18 16 10 -16 68 -52
95 -17 13 -48 30 -68 37 -42 14 -42 14 -28 55 8 23 26 36 80 62 76 35 102 40
94 18 -7 -18 104 -15 116 4 10 16 33 3 26 -15 -2 -7 7 -18 21 -24 22 -10 28
-9 44 10 16 18 23 20 42 12 33 -16 73 -15 87 2 16 19 4 33 -12 17 -14 -14 -68
-16 -68 -4 0 5 -22 7 -50 6 -30 -1 -53 3 -60 11 -13 16 13 28 44 20 18 -5 19
-4 5 6 -15 11 -14 14 4 36 22 24 37 30 37 13z m311 -7 c1 -16 2 -16 6 -2 5 20
37 14 63 -10 9 -9 25 -21 35 -26 14 -9 10 -11 -25 -12 -24 -1 -51 -9 -61 -19
-11 -10 -19 -12 -19 -6 0 7 -11 12 -25 12 -33 0 -42 23 -21 55 19 29 45 33 47
8z m1123 -14 c5 -5 7 -12 3 -16 -9 -8 -57 17 -57 29 0 10 40 1 54 -13z m-281
-10 c-13 -13 -63 -21 -63 -10 0 7 62 29 69 24 3 -2 0 -8 -6 -14z m-308 -9 c10
-11 22 -17 26 -14 15 9 159 12 159 3 0 -5 -7 -9 -17 -9 -15 0 -15 -1 0 -18 10
-10 17 -25 17 -33 0 -20 20 -39 41 -39 37 0 32 -24 -14 -65 -56 -49 -63 -69
-9 -28 115 90 192 118 237 89 14 -9 25 -22 25 -29 1 -21 70 -58 94 -50 11 4
25 6 29 5 4 -1 3 6 -3 17 -15 29 -14 29 30 18 23 -7 42 -19 46 -29 4 -13 14
-18 32 -16 22 3 27 -2 33 -27 l7 -30 1 28 c1 29 18 37 27 13 3 -8 17 -17 32
-21 15 -3 35 -8 45 -11 11 -3 17 0 17 9 0 14 20 27 41 27 21 0 6 -29 -23 -44
l-33 -17 29 6 c17 3 35 12 40 19 15 18 46 28 46 15 0 -6 5 -7 10 -4 16 10 12
-12 -6 -29 -8 -9 -27 -16 -40 -16 -21 0 -24 -3 -19 -22 6 -17 4 -20 -10 -15
-9 4 -28 7 -41 7 -17 0 -24 6 -24 20 0 11 -3 20 -7 21 -75 7 -82 5 -88 -28 -4
-25 -12 -34 -33 -39 -15 -4 -36 -13 -47 -20 -29 -21 -45 -17 -45 11 0 42 -19
28 -22 -17 -2 -29 -8 -43 -18 -44 -8 -1 -25 -2 -37 -3 -12 0 -30 -9 -40 -19
-18 -18 -173 -92 -193 -92 -7 0 -43 -17 -81 -37 -38 -20 -70 -35 -71 -32 -2 2
-14 25 -27 51 -20 40 -26 46 -42 38 -44 -24 -66 4 -34 46 8 11 15 41 15 70 0
34 5 56 16 64 8 8 20 23 26 34 11 20 11 20 -17 2 l-28 -19 -29 34 -28 34 15
-37 c16 -40 19 -89 8 -151 -4 -29 -12 -41 -30 -48 -15 -6 -31 -25 -40 -49 -25
-62 -38 -50 -38 33 l0 73 -80 78 c-44 44 -79 83 -78 87 2 5 -5 9 -15 9 -22 0
-72 22 -72 33 0 4 -17 7 -38 7 -53 0 -100 29 -130 79 -24 41 -24 43 -5 37 13
-4 27 -1 36 9 9 8 20 15 26 15 18 0 12 -38 -6 -49 -10 -5 -14 -13 -9 -18 5 -4
11 -2 13 5 3 6 19 13 36 13 18 1 24 3 15 6 -17 4 -26 33 -10 33 4 0 18 3 32 7
23 6 24 5 11 -11 -20 -25 1 -46 29 -28 18 11 24 7 57 -29 21 -23 41 -49 44
-57 3 -10 8 -12 12 -5 4 6 -2 22 -13 36 -11 14 -20 30 -20 36 0 6 -5 11 -11
11 -5 0 -8 4 -5 9 9 13 76 11 76 -2 0 -7 8 -21 16 -32 l15 -20 12 20 c7 11 12
25 13 30 0 6 10 30 23 53 17 34 27 43 42 39 11 -3 17 -1 13 5 -7 11 13 28 32
28 6 0 19 -9 29 -20z m55 10 c0 -5 -4 -10 -10 -10 -5 0 -10 5 -10 10 0 6 5 10
10 10 6 0 10 -4 10 -10z m-1056 -26 c9 -23 8 -24 -18 -24 -32 0 -42 16 -19 29
25 14 30 13 37 -5z m1326 -4 c0 -5 -4 -10 -10 -10 -5 0 -10 5 -10 10 0 6 5 10
10 10 6 0 10 -4 10 -10z m70 -5 c0 -2 -12 -12 -27 -20 -16 -9 -19 -13 -8 -9
40 14 65 16 65 6 0 -15 -31 -37 -54 -38 -12 -1 -36 -8 -54 -15 -28 -12 -34
-12 -41 0 -5 7 -13 11 -19 7 -5 -3 -15 1 -23 10 -10 12 -9 18 4 31 15 15 17
15 23 0 5 -14 9 -15 21 -6 9 8 17 9 24 2 7 -7 18 -3 34 13 21 21 55 33 55 19z
m-1755 -26 c-4 -5 -1 -9 4 -9 23 0 9 -19 -16 -22 -29 -3 -45 -28 -18 -28 9 0
21 -13 26 -29 6 -16 18 -31 27 -34 9 -3 28 -12 42 -20 14 -8 43 -19 65 -24 40
-8 40 -8 43 -60 2 -29 7 -53 13 -53 10 0 12 -30 3 -54 -5 -12 -20 -16 -64 -16
-43 0 -64 -5 -83 -21 -19 -14 -31 -17 -44 -11 -10 5 -46 13 -80 17 -37 4 -64
12 -67 20 -3 8 -15 19 -28 26 -20 11 -20 9 6 -22 46 -54 167 -70 258 -33 46
18 49 18 81 1 19 -10 45 -29 60 -43 14 -13 33 -24 41 -24 9 0 28 -18 42 -40
23 -34 32 -40 62 -40 42 0 139 -62 153 -97 7 -19 12 -20 44 -13 41 9 114 2
133 -13 18 -14 50 -78 55 -108 7 -42 26 -79 40 -79 47 0 94 -90 69 -131 -10
-15 -8 -21 10 -33 25 -18 37 -76 37 -188 1 -83 -10 -100 -29 -44 -11 35 -36
63 -46 53 -3 -3 1 -16 10 -29 26 -40 45 -178 39 -281 -3 -58 -1 -107 6 -132 7
-22 18 -85 25 -140 11 -81 22 -117 56 -189 41 -85 42 -90 36 -158 -6 -69 -29
-212 -42 -262 -7 -31 -34 -43 -34 -16 0 28 -17 33 -23 8 -6 -21 -7 -21 -26 -4
-18 17 -19 17 -26 -4 -6 -20 -8 -20 -20 -4 -12 17 -13 16 -19 -4 -8 -24 -46
-31 -46 -8 0 12 -5 12 -31 -1 -16 -8 -33 -12 -36 -9 -3 3 -12 -2 -18 -11 -10
-13 -16 -14 -26 -7 -8 6 -26 14 -41 18 -17 4 -28 14 -30 29 -2 12 -8 21 -14
20 -13 -2 -13 94 0 202 7 62 6 75 -14 113 -20 38 -22 52 -16 120 12 129 29
135 40 12 3 -36 9 -96 12 -135 6 -67 17 -95 35 -95 15 0 10 64 -7 88 -10 15
-18 59 -23 130 -5 67 -15 120 -25 140 -19 37 -76 81 -157 122 -59 30 -148 121
-184 188 -28 52 -33 190 -10 297 23 107 24 109 79 113 43 3 68 22 29 22 -10 0
-25 5 -33 10 -13 8 -13 13 -2 31 17 26 10 34 -18 19 -17 -9 -27 -7 -54 9 -18
12 -44 21 -57 21 -13 0 -33 7 -43 15 -25 19 -46 19 -46 0 0 -8 16 -37 36 -64
50 -71 51 -95 10 -255 -31 -118 -36 -155 -36 -248 0 -60 -5 -129 -11 -153 -9
-37 -8 -49 11 -91 19 -44 20 -60 15 -149 -4 -55 -14 -127 -23 -160 -8 -33 -19
-85 -23 -115 -4 -30 -14 -74 -23 -98 -16 -43 -60 -91 -83 -92 -7 0 -13 -6 -14
-12 0 -7 -5 -3 -11 9 -10 21 -11 21 -31 3 -11 -11 -25 -16 -31 -13 -6 4 -29 7
-51 6 -22 -1 -43 4 -47 10 -5 8 -14 7 -34 -2 -21 -9 -29 -9 -34 0 -4 6 -12 9
-18 5 -6 -3 -14 -2 -17 4 -5 8 -11 8 -20 0 -9 -8 -14 -8 -17 1 -6 18 -45 21
-51 5 -8 -20 -42 -9 -55 17 -9 18 -11 19 -11 5 -1 -22 -20 -24 -28 -3 -5 14
-8 14 -24 -1 -18 -16 -19 -15 -28 7 l-10 24 -6 -22 c-4 -13 -12 -20 -21 -16
-8 3 -14 0 -14 -6 0 -6 -4 -11 -10 -11 -15 0 -60 42 -60 57 0 7 -11 13 -24 13
-32 0 -52 33 -61 100 -4 30 -13 71 -21 92 -7 20 -10 52 -7 71 3 18 0 73 -7
123 -15 107 -20 399 -8 434 5 13 26 49 47 80 54 79 56 92 31 161 l-22 59 18
97 c27 139 24 333 -6 428 -58 187 -45 253 78 382 18 19 38 46 43 60 8 21 14
24 38 20 20 -4 31 -2 35 8 3 9 19 15 39 15 18 0 37 4 43 9 15 15 64 1 64 -19
0 -39 76 -74 107 -49 15 12 16 12 10 -3 -3 -10 -2 -18 3 -18 12 0 60 -48 60
-60 0 -17 21 -11 40 13 11 12 17 30 14 39 -3 10 3 22 14 29 32 20 0 44 -55 42
-36 -1 -42 1 -33 12 9 11 6 14 -12 18 -14 3 -8 5 17 6 22 1 36 5 30 9 -5 4
-11 22 -11 39 -1 30 1 32 25 26 14 -3 32 -11 40 -17 11 -9 13 -7 6 13 -7 23
-6 24 39 19 43 -5 48 -3 74 27 15 17 30 30 35 28 4 -2 5 -9 2 -14z m158 -16
c-15 -8 -35 -21 -44 -29 -22 -20 -29 -18 -29 11 0 17 4 23 14 19 8 -3 27 1 43
9 15 8 32 13 36 10 5 -3 -4 -12 -20 -20z m1687 17 c0 -5 -6 -11 -12 -11 -7 -1
2 -4 21 -8 19 -3 36 -12 39 -20 4 -11 -2 -12 -24 -7 -16 4 -39 8 -51 8 -13 0
-23 4 -23 9 0 5 5 9 10 9 6 0 10 7 10 15 0 8 7 15 15 15 8 0 15 -4 15 -10z
m-2340 -4 c0 -3 -4 -8 -10 -11 -5 -3 -10 -1 -10 4 0 6 5 11 10 11 6 0 10 -2
10 -4z m2383 -62 c17 4 27 1 31 -9 4 -11 -2 -15 -22 -15 -29 0 -52 16 -52 35
0 5 4 4 9 -4 6 -9 18 -11 34 -7z m-2123 -14 c0 -5 -4 -10 -10 -10 -5 0 -10 5
-10 10 0 6 5 10 10 10 6 0 10 -4 10 -10z m-120 -100 c0 -5 -4 -10 -10 -10 -5
0 -10 5 -10 10 0 6 5 10 10 10 6 0 10 -4 10 -10z m120 -20 c0 -5 -4 -10 -10
-10 -5 0 -10 5 -10 10 0 6 5 10 10 10 6 0 10 -4 10 -10z m42 -35 c0 -14 -29
-31 -38 -22 -9 8 16 39 28 35 5 -2 10 -8 10 -13z m402 -1 c7 -19 -2 -37 -15
-29 -12 8 -12 45 0 45 5 0 12 -7 15 -16z m39 -124 c3 -11 2 -20 -2 -20 -14 0
-31 24 -31 43 0 16 3 17 14 8 8 -6 16 -21 19 -31z m1807 -10 c0 -5 -5 -10 -12
-10 -6 0 -36 -19 -66 -41 -53 -41 -57 -42 -129 -41 -41 0 -77 3 -80 6 -8 7 75
44 119 52 18 4 40 13 48 20 13 11 39 17 103 22 9 1 17 -2 17 -8z m-1605 -100
c34 -21 71 -68 61 -77 -3 -3 -24 7 -47 22 -22 16 -59 31 -82 34 -53 8 -60 28
-10 34 21 2 40 4 42 5 2 1 18 -7 36 -18z m-1406 -1096 c3 -3 -1 -55 -9 -117
-8 -62 -14 -152 -15 -202 -1 -49 -6 -108 -13 -130 -6 -22 -16 -70 -22 -108 -9
-56 -8 -72 5 -97 32 -62 13 -75 -56 -39 -28 14 -39 25 -35 35 3 8 2 13 -3 9
-5 -3 -12 1 -14 7 -3 7 -6 1 -6 -14 -1 -31 -15 -37 -29 -12 -8 14 -10 14 -24
0 -14 -14 -16 -13 -22 7 -5 18 -8 19 -15 7 -7 -10 -19 5 -45 64 -52 113 -67
163 -73 231 -5 59 -3 65 52 170 31 61 61 111 66 113 4 2 13 20 20 40 6 20 15
39 19 42 9 6 213 0 219 -6z m-439 -199 c0 -3 -7 -22 -15 -42 -24 -56 -19 -111
16 -173 44 -80 92 -204 80 -208 -5 -2 -7 -10 -4 -19 5 -12 3 -14 -7 -8 -8 5
-18 2 -25 -9 -12 -15 -14 -15 -28 -1 -21 20 -27 19 -27 -5 0 -22 -8 -24 -44
-10 -39 15 -50 71 -41 229 4 74 11 146 16 159 16 41 79 110 79 87z m516 -125
c15 -52 21 -88 42 -255 5 -39 17 -85 26 -102 25 -50 21 -65 -16 -61 -18 2 -32
8 -31 14 1 6 -8 9 -20 7 -15 -3 -33 5 -52 23 -27 25 -30 34 -33 103 -3 55 3
109 23 196 14 66 29 127 32 135 6 17 7 15 29 -60z m1197 0 c27 0 39 -5 43 -17
3 -10 22 -54 41 -98 48 -107 47 -141 -6 -248 -44 -88 -71 -124 -71 -94 0 11
-5 14 -16 10 -8 -3 -13 -12 -10 -19 3 -8 1 -14 -5 -14 -5 0 -12 7 -16 15 -5
14 -7 14 -23 0 -22 -20 -34 -5 -24 28 8 27 0 21 -18 -14 -11 -21 -13 9 -12
201 2 294 -3 264 42 256 20 -3 54 -6 75 -6z m219 -320 c-3 -104 -6 -113 -47
-165 -15 -19 -17 -19 -29 -3 -10 14 -15 15 -26 5 -10 -10 -12 -9 -7 5 3 10 2
20 -3 23 -6 4 -10 1 -10 -6 0 -10 -3 -10 -12 -1 -14 14 3 56 64 149 37 58 40
66 33 110 l-7 48 24 -30 c21 -27 23 -37 20 -135z m-368 -52 c-5 -45 -11 -60
-30 -72 -30 -21 -34 -20 -34 4 0 11 -7 20 -15 20 -13 0 -15 7 -9 38 4 20 11
47 15 60 5 13 9 31 9 41 0 10 10 40 22 67 l22 49 13 -75 c7 -41 10 -101 7
-132z m406 -117 c0 -6 -4 -13 -10 -16 -5 -3 -10 1 -10 9 0 9 5 16 10 16 6 0
10 -4 10 -9z"/>
<path d="M4160 5050 c0 -5 7 -10 16 -10 8 0 12 5 9 10 -3 6 -10 10 -16 10 -5
0 -9 -4 -9 -10z"/>
<path d="M4095 5030 c-3 -5 -2 -10 4 -10 5 0 13 5 16 10 3 6 2 10 -4 10 -5 0
-13 -4 -16 -10z"/>
<path d="M4600 4733 c-21 -22 -22 -24 -4 -15 23 12 51 42 38 41 -5 0 -20 -12
-34 -26z"/>
<path d="M4584 4597 c3 -10 6 -37 6 -60 0 -31 3 -38 10 -27 15 23 12 64 -6 86
-14 17 -15 17 -10 1z"/>
<path d="M4530 5160 c-9 -6 -10 -10 -3 -10 6 0 15 5 18 10 8 12 4 12 -15 0z"/>
<path d="M5599 4910 c24 -27 46 -48 49 -46 2 2 -6 22 -17 44 -17 33 -41 51
-72 52 -3 0 15 -22 40 -50z"/>
<path d="M5985 4920 c-3 -5 -2 -10 4 -10 5 0 13 5 16 10 3 6 2 10 -4 10 -5 0
-13 -4 -16 -10z"/>
<path d="M3550 5019 c0 -5 5 -7 10 -4 6 3 10 8 10 11 0 2 -4 4 -10 4 -5 0 -10
-5 -10 -11z"/>
<path d="M3710 5548 c0 -15 18 -17 30 -3 9 11 8 14 -9 12 -12 -1 -21 -5 -21
-9z"/>
<path d="M5328 5473 c7 -3 16 -2 19 1 4 3 -2 6 -13 5 -11 0 -14 -3 -6 -6z"/>
<path d="M3208 5303 c7 -3 16 -2 19 1 4 3 -2 6 -13 5 -11 0 -14 -3 -6 -6z"/>
<path d="M2775 1216 c-41 -18 -63 -54 -67 -107 -3 -40 -6 -44 -30 -47 -27 -3
-28 -6 -28 -58 0 -30 5 -55 10 -55 6 -1 15 -3 20 -4 6 -1 13 -3 18 -4 4 0 5
-58 4 -127 -5 -178 -7 -174 78 -174 39 0 71 1 72 3 0 1 4 70 7 152 5 121 9
149 20 147 8 -2 27 0 42 3 28 6 29 9 29 61 l0 54 -45 0 c-38 0 -45 3 -45 20 0
20 10 24 63 20 l28 -2 -3 64 -3 63 -70 2 c-42 2 -82 -3 -100 -11z"/>
<path d="M6214 1216 c-42 -19 -63 -50 -70 -108 -6 -42 -10 -48 -30 -48 -22 0
-24 -4 -24 -55 0 -30 5 -56 10 -56 6 -1 16 -2 23 -3 9 -1 13 -41 17 -151 l5
-150 73 -3 72 -3 0 151 c0 143 1 150 20 151 11 1 25 3 30 4 6 1 19 3 30 4 17
1 20 8 20 56 l0 55 -44 0 c-48 0 -60 8 -46 30 5 8 24 13 50 12 l41 -2 -3 63
-3 62 -70 2 c-43 2 -82 -3 -101 -11z"/>
<path d="M3457 1214 c-4 -4 -7 -135 -7 -291 l0 -284 78 3 77 3 0 285 0 285
-70 3 c-39 1 -74 0 -78 -4z"/>
<path d="M7415 1208 c-2 -7 -3 -137 -2 -288 l2 -275 78 -3 78 -3 -3 288 -3
288 -73 3 c-52 2 -74 -1 -77 -10z"/>
<path d="M5168 1200 c-81 -24 -138 -97 -138 -176 0 -54 35 -116 78 -140 33
-18 58 -27 152 -53 32 -10 39 -47 10 -56 -36 -11 -81 5 -99 36 -9 17 -22 27
-31 25 -8 -3 -41 -10 -72 -16 -66 -13 -71 -24 -37 -80 46 -74 99 -100 208
-100 89 0 143 21 184 69 53 64 57 143 11 212 -27 40 -65 60 -164 88 -51 14
-65 22 -65 37 0 15 8 20 36 22 29 2 41 -2 57 -22 l20 -26 58 20 c74 26 79 31
61 66 -44 85 -163 126 -269 94z"/>
<path d="M252 923 l3 -278 83 -3 82 -3 0 105 c0 153 19 154 71 1 l34 -100 88
-3 c73 -2 87 0 87 12 0 9 -18 64 -40 123 l-41 108 26 18 c37 28 58 74 58 132
0 61 -21 105 -65 137 -31 22 -43 23 -211 26 l-177 3 2 -278z m262 141 c19 -7
21 -45 4 -62 -7 -7 -31 -12 -55 -12 l-43 0 0 40 c0 40 0 40 39 40 22 0 46 -3
55 -6z"/>
<path d="M2200 1048 c-23 -84 -58 -207 -77 -272 -20 -71 -30 -123 -25 -128 5
-5 36 -8 68 -6 l59 3 15 53 15 52 60 0 60 0 15 -52 15 -53 83 -3 c48 -2 82 1
82 7 0 5 -15 63 -34 128 -18 65 -53 187 -77 271 l-43 152 -86 0 -87 0 -43
-152z m135 -125 c6 -31 5 -33 -19 -33 -30 0 -30 1 -15 54 12 43 21 37 34 -21z"/>
<path d="M945 1052 c-50 -23 -97 -77 -93 -106 2 -17 12 -22 50 -26 56 -7 68
-15 36 -25 -108 -33 -139 -160 -57 -229 41 -35 132 -37 173 -5 l27 21 6 -21
c5 -20 11 -22 76 -19 l70 3 -2 152 c-1 83 -6 164 -10 179 -4 15 -23 41 -43 57
-31 25 -46 29 -114 33 -64 4 -87 1 -119 -14z m125 -116 c0 -8 -14 -16 -37 -18
-45 -6 -50 -3 -33 17 16 19 70 20 70 1z m-2 -143 c-2 -23 -8 -29 -35 -31 -27
-3 -33 0 -33 17 0 22 24 40 53 41 14 0 18 -6 15 -27z"/>
<path d="M3241 1053 c-18 -12 -26 -13 -29 -5 -2 8 -28 12 -73 12 l-69 0 0
-210 0 -211 78 3 77 3 5 122 c3 67 8 125 12 129 4 4 25 10 45 13 l38 6 0 75 0
75 -30 3 c-17 1 -41 -5 -54 -15z"/>
<path d="M3872 1056 c-55 -20 -100 -69 -118 -132 -32 -111 8 -223 98 -270 36
-19 141 -18 178 1 37 19 78 73 86 113 7 36 5 38 -74 46 -49 5 -53 4 -62 -20
-12 -30 -35 -40 -55 -24 -22 18 -21 143 2 165 16 16 18 16 35 -5 10 -12 18
-29 18 -37 0 -13 10 -14 62 -9 34 4 66 10 71 13 15 9 -1 64 -29 101 -48 62
-136 86 -212 58z"/>
<path d="M4358 1060 c-50 -15 -87 -44 -103 -81 -10 -20 -14 -42 -11 -48 4 -6
27 -11 51 -11 52 0 66 -14 27 -28 -51 -18 -84 -57 -89 -107 -11 -91 37 -145
129 -145 32 0 62 6 74 15 25 19 44 19 44 0 0 -12 15 -15 73 -15 l72 0 -3 148
c-1 81 -5 161 -7 178 -6 36 -47 77 -94 93 -38 12 -123 13 -163 1z m102 -124
c0 -8 -14 -16 -32 -19 -38 -5 -43 -3 -35 18 8 19 67 21 67 1z m10 -131 c0 -25
-36 -54 -59 -48 -25 6 -27 26 -5 47 20 21 64 21 64 1z"/>
<path d="M5720 1064 c-79 -26 -130 -74 -130 -122 0 -19 5 -22 43 -22 61 0 78
-15 35 -29 -98 -32 -124 -160 -47 -225 25 -21 41 -26 88 -26 35 0 65 6 77 15
25 19 44 19 44 0 0 -12 14 -15 69 -15 39 0 71 3 73 8 2 4 2 83 -2 175 l-5 169
-32 28 c-18 16 -49 34 -70 39 -39 11 -116 13 -143 5z m90 -128 c0 -8 -14 -16
-32 -19 -41 -6 -53 0 -37 19 15 18 69 19 69 0z m3 -123 c3 -5 1 -18 -4 -30
-11 -31 -69 -33 -69 -3 0 29 60 55 73 33z"/>
<path d="M6615 1058 c-50 -18 -86 -49 -101 -85 -19 -44 -12 -53 40 -53 58 0
63 -10 19 -34 -133 -75 -97 -246 51 -246 26 0 61 7 78 16 28 15 32 15 40 0 7
-12 25 -16 80 -16 l70 0 -4 163 c-5 182 -14 214 -71 243 -39 21 -160 28 -202
12z m110 -119 c9 -14 7 -15 -37 -22 -28 -4 -38 -2 -38 8 0 23 63 35 75 14z m5
-136 c0 -27 -12 -41 -40 -44 -31 -5 -41 28 -14 48 26 19 54 16 54 -4z"/>
<path d="M7206 1052 c-22 -13 -30 -14 -33 -4 -3 8 -27 12 -69 12 l-64 0 0
-210 0 -210 75 0 75 0 0 108 c0 131 10 156 63 160 l37 3 0 80 0 79 -27 0 c-16
0 -41 -8 -57 -18z"/>
<path d="M7805 1051 c-50 -23 -70 -45 -85 -97 -16 -55 0 -104 47 -143 l35 -29
-52 -7 c-50 -7 -51 -8 -45 -34 16 -65 83 -101 185 -101 97 0 152 26 181 87 16
33 19 53 14 81 -9 50 -48 99 -86 107 -37 8 -31 17 23 30 50 13 55 23 27 60
-49 61 -164 83 -244 46z m135 -111 c11 -7 2 -10 -32 -10 -27 0 -48 5 -48 10 0
13 60 13 80 0z m0 -170 c0 -14 -55 -21 -84 -10 -15 5 -25 13 -23 17 7 11 107
3 107 -7z"/>
<path d="M1340 1053 c0 -5 30 -99 67 -211 l68 -203 60 3 59 3 68 200 c37 110
68 203 68 207 0 5 -26 8 -59 8 l-58 0 -23 -80 c-13 -45 -26 -83 -31 -85 -4 -3
-20 33 -35 80 l-28 85 -78 0 c-43 0 -78 -3 -78 -7z"/>
<path d="M2640 354 l0 -185 23 3 c22 3 22 5 25 186 l3 182 -25 0 -26 0 0 -186z"/>
<path d="M3202 393 l3 -128 28 -3 27 -3 0 71 c0 56 3 72 16 77 24 9 34 -15 34
-84 0 -60 1 -63 25 -63 25 0 25 1 25 84 0 97 -10 112 -65 103 l-35 -6 0 40 c0
37 -2 39 -30 39 l-31 0 3 -127z"/>
<path d="M6150 500 c0 -16 7 -20 30 -20 23 0 30 4 30 20 0 16 -7 20 -30 20
-23 0 -30 -4 -30 -20z"/>
<path d="M7180 486 c0 -32 -2 -34 -36 -34 -51 0 -76 -28 -82 -90 -4 -44 -1
-54 20 -75 21 -21 33 -24 89 -23 l64 1 3 128 3 127 -31 0 c-27 0 -30 -3 -30
-34z m-2 -119 c4 -48 -12 -71 -39 -56 -35 18 -22 102 15 97 16 -2 22 -11 24
-41z"/>
<path d="M732 388 l3 -123 27 -3 27 -3 3 83 3 83 31 -80 c31 -78 32 -80 68
-83 l36 -3 0 126 0 126 -27 -3 c-27 -3 -28 -5 -33 -73 l-5 -70 -28 73 -29 72
-39 0 -40 0 3 -122z"/>
<path d="M2850 485 c0 -21 5 -25 30 -25 l29 0 3 -97 3 -98 28 -3 27 -3 0 100
0 101 30 0 c25 0 30 4 30 25 0 25 -1 25 -90 25 -89 0 -90 0 -90 -25z"/>
<path d="M4082 388 l3 -123 29 -3 c111 -13 196 56 140 113 -14 14 -15 20 -4
40 17 33 5 74 -26 85 -14 6 -52 10 -85 10 l-60 0 3 -122z m113 52 c0 -20 -6
-26 -27 -28 -25 -3 -28 0 -28 28 0 28 3 31 28 28 21 -2 27 -8 27 -28z m3 -102
c3 -25 0 -28 -27 -28 -28 0 -31 3 -31 31 0 27 3 30 28 27 21 -2 28 -9 30 -30z"/>
<path d="M5560 385 l0 -126 28 3 c25 3 27 7 30 51 l3 47 45 0 c40 0 44 2 44
25 0 23 -4 25 -45 25 -41 0 -45 2 -45 24 0 23 5 25 48 28 39 3 47 6 47 23 0
18 -8 20 -77 23 l-78 3 0 -126z"/>
<path d="M1440 480 c0 -12 -7 -29 -16 -38 -15 -14 -15 -17 0 -27 12 -9 16 -29
16 -73 0 -65 12 -82 59 -82 22 0 29 28 12 46 -5 5 -11 29 -12 52 -3 33 1 46
14 53 21 12 23 39 3 39 -8 0 -16 10 -18 23 -4 32 -58 38 -58 7z"/>
<path d="M5099 488 c-1 -7 -1 -17 0 -21 1 -4 -6 -10 -14 -13 -17 -7 -20 -41
-4 -46 7 -2 13 -30 14 -61 3 -65 16 -87 52 -87 29 0 43 29 20 42 -23 12 -24
108 -2 108 8 0 15 9 15 20 0 11 -7 20 -15 20 -9 0 -15 9 -15 25 0 20 -5 25
-25 25 -14 0 -26 -6 -26 -12z"/>
<path d="M1122 434 c-12 -8 -22 -19 -22 -25 0 -13 58 -11 62 3 6 16 38 2 38
-15 0 -9 -15 -17 -40 -21 -50 -8 -75 -41 -61 -79 12 -30 28 -36 101 -33 l55 1
0 83 c0 63 -4 85 -15 92 -23 15 -93 12 -118 -6z m78 -104 c0 -23 -26 -38 -41
-23 -14 14 0 43 22 43 12 0 19 -7 19 -20z"/>
<path d="M1690 369 c0 -66 3 -84 18 -95 21 -16 54 -18 69 -3 8 8 13 8 17 0 4
-6 18 -11 32 -11 24 0 24 1 24 95 l0 95 -30 0 c-22 0 -28 -4 -24 -15 4 -9 3
-40 -1 -70 -5 -45 -10 -55 -26 -55 -17 0 -19 8 -19 70 l0 70 -30 0 -30 0 0
-81z"/>
<path d="M2030 355 l0 -95 30 0 c30 0 30 1 30 54 0 52 16 86 41 86 5 0 9 11 9
25 0 27 -18 33 -38 13 -9 -9 -12 -9 -12 0 0 7 -13 12 -30 12 l-30 0 0 -95z"/>
<path d="M2321 429 c-57 -61 -19 -169 60 -169 34 0 78 29 79 53 0 11 -38 8
-60 -5 -16 -10 -23 -10 -36 4 -25 25 -8 38 53 38 l56 0 -7 32 c-10 49 -33 68
-82 68 -31 0 -49 -6 -63 -21z m89 -40 c0 -5 -11 -9 -25 -9 -26 0 -35 25 -12
33 13 5 37 -10 37 -24z"/>
<path d="M3561 431 c-26 -26 -35 -74 -21 -114 11 -35 43 -57 84 -57 24 0 76
35 76 51 0 13 -37 11 -60 -3 -16 -10 -23 -10 -36 4 -25 25 -8 38 52 38 30 0
54 4 54 9 0 23 -24 73 -40 81 -31 17 -88 12 -109 -9z m77 -23 c19 -19 14 -28
-18 -28 -16 0 -30 4 -30 8 0 9 21 32 30 32 3 0 11 -5 18 -12z"/>
<path d="M4474 442 c-20 -13 -34 -50 -34 -92 0 -71 62 -111 123 -79 22 12 37
28 37 42 0 11 -45 8 -57 -4 -16 -16 -43 -3 -43 21 0 18 6 20 56 20 l57 0 -7
32 c-10 48 -33 68 -80 68 -23 0 -46 -4 -52 -8z m76 -53 c0 -5 -11 -9 -25 -9
-26 0 -35 25 -12 33 13 5 37 -10 37 -24z"/>
<path d="M4785 434 c-9 -9 -15 -28 -13 -43 2 -20 14 -31 52 -49 36 -18 46 -26
37 -35 -9 -9 -16 -8 -31 1 -27 17 -60 15 -60 -3 0 -25 47 -48 86 -42 49 8 66
24 62 61 -3 26 -11 35 -51 54 -26 12 -45 27 -42 32 8 13 35 13 35 0 0 -5 11
-10 25 -10 27 0 33 18 13 38 -18 18 -94 15 -113 -4z"/>
<path d="M5880 355 l0 -95 30 0 c30 0 30 1 30 54 0 52 16 86 41 86 5 0 9 11 9
25 0 28 -3 29 -31 15 -13 -7 -19 -7 -19 0 0 5 -13 10 -30 10 l-30 0 0 -95z"/>
<path d="M6152 358 l3 -93 28 -3 27 -3 0 95 0 96 -30 0 -31 0 3 -92z"/>
<path d="M6415 433 c-79 -78 2 -212 98 -162 22 12 37 28 37 42 0 12 -58 8 -63
-5 -6 -17 -42 3 -42 23 0 10 16 15 58 17 31 2 57 7 57 11 0 23 -24 73 -40 81
-29 15 -87 12 -105 -7z m73 -25 c20 -20 14 -28 -18 -28 -28 0 -30 2 -20 20 12
23 21 25 38 8z"/>
<path d="M6730 353 l0 -94 28 3 c26 3 27 6 32 73 4 55 9 70 22 73 15 3 18 -7
20 -70 3 -71 4 -73 31 -76 l27 -3 0 84 c0 56 -4 88 -12 95 -7 5 -43 10 -80 10
l-68 0 0 -95z"/>
</g>
</svg>
